<svg width="106" height="40" viewBox="0 0 106 40" fill="none" xmlns="http://www.w3.org/2000/svg" classname="{className}">
      <path d="M13.0124 10.2904C15.2931 10.2904 17.1419 8.44149 17.1419 6.16081C17.1419 3.88012 15.2931 2.03125 13.0124 2.03125C10.7317 2.03125 8.88281 3.88012 8.88281 6.16081C8.88281 8.44149 10.7317 10.2904 13.0124 10.2904Z" fill="#8FB6E8"/>
      <path d="M12.9449 13.5974C13.1832 13.3489 13.5781 13.3421 13.8267 13.5804L26.3277 25.6525C26.5762 25.8908 26.583 26.2857 26.3413 26.5342L14.2692 39.0352C14.0309 39.2837 13.636 39.2905 13.3875 39.0488L0.886495 26.9768C0.637973 26.7385 0.631163 26.3436 0.869472 26.095L12.9449 13.5974Z" fill="#8FB6E8"/>
      <path fill-rule="evenodd" clip-rule="evenodd" d="M13.176 2.55767C15.0416 2.55767 16.5634 4.07603 16.5634 5.94506C16.5634 7.81408 15.0451 9.33245 13.176 9.33245C11.3104 9.33245 9.79204 7.81408 9.79204 5.94506C9.78864 4.07944 11.307 2.55767 13.176 2.55767ZM13.176 11.4057C16.1855 11.4057 18.6333 8.95456 18.6333 5.94506C18.6333 2.93215 16.1855 0.484375 13.176 0.484375C10.1665 0.484375 7.71875 2.93556 7.71875 5.94506C7.71875 8.95796 10.1665 11.4057 13.176 11.4057Z" fill="#8FB6E8"/>
      <path fill-rule="evenodd" clip-rule="evenodd" d="M19.3337 26.5583C18.8332 26.5583 18.4247 26.1498 18.4247 25.6493C18.4247 25.1489 18.8332 24.7403 19.3337 24.7403C19.8341 24.7403 20.2426 25.1489 20.2426 25.6493C20.2426 26.1498 19.8341 26.5583 19.3337 26.5583ZM23.7934 28.3014L15.548 36.5503C14.353 37.7452 12.4125 37.7452 11.2175 36.5503L2.97205 28.3014C2.3933 27.7226 2.07329 26.9532 2.07329 26.1362C2.07329 25.3191 2.3933 24.5497 2.97205 23.9709L7.35013 19.5895C7.91186 22.0951 9.98174 24.0322 12.5521 24.3999C12.5521 25.3191 12.5487 27.1439 12.5112 27.8894C12.4738 28.7065 12.8244 29.5508 13.4508 30.15C13.9547 30.63 14.8466 31.1645 16.3208 31.1645C16.5216 31.1645 16.7327 31.1543 16.954 31.1338C18.6868 30.9704 19.7286 29.9423 19.909 28.2775C21.1176 28.0154 22.0231 26.9396 22.0231 25.6527C22.0231 24.1718 20.818 22.9666 19.3371 22.9666C17.8561 22.9666 16.651 24.1718 16.651 25.6527C16.651 26.7047 17.2604 27.6171 18.1421 28.0562C18.0672 28.8903 17.6553 29.2818 16.7838 29.3635C15.8407 29.4521 15.1122 29.2784 14.6764 28.8631C14.37 28.5703 14.2747 28.2128 14.2849 27.9745C14.3224 27.1881 14.3258 25.3361 14.3258 24.4033C16.8655 24.039 18.9149 22.1462 19.5073 19.6848L23.7934 23.9709C24.3722 24.5497 24.6888 25.3191 24.6888 26.1362C24.6922 26.9532 24.3722 27.7226 23.7934 28.3014ZM11.2141 15.7186C11.8099 15.1229 12.5963 14.8233 13.3793 14.8233C14.1624 14.8233 14.9488 15.1229 15.5445 15.7186L17.9208 18.0949C17.914 18.1358 17.9072 18.1766 17.9072 18.2175C17.9072 20.6823 15.902 22.6909 13.4372 22.6909C10.9724 22.6909 8.96723 20.6857 8.96723 18.2175C8.96723 18.1392 8.9536 18.0677 8.93658 17.9962L11.2141 15.7186ZM25.2573 22.5002L17.0119 14.2513C15.0101 12.2496 11.752 12.2496 9.75024 14.2513L1.50475 22.5002C0.534492 23.4705 0 24.7608 0 26.1328C0 27.5047 0.534492 28.795 1.50475 29.7653L9.75024 38.0142C10.7511 39.0151 12.0652 39.5155 13.3827 39.5155C14.6968 39.5155 16.0144 39.0151 17.0153 38.0142L25.2607 29.7653C26.231 28.795 26.7655 27.5047 26.7655 26.1328C26.7621 24.7642 26.2276 23.4739 25.2573 22.5002Z" fill="#8FB6E8"/>
      <path d="M19.153 10.2904C21.4337 10.2904 23.2825 8.44149 23.2825 6.16081C23.2825 3.88012 21.4337 2.03125 19.153 2.03125C16.8723 2.03125 15.0234 3.88012 15.0234 6.16081C15.0234 8.44149 16.8723 10.2904 19.153 10.2904Z" fill="white"/>
      <path d="M19.09 13.5974C19.3283 13.3489 19.7232 13.3421 19.9717 13.5804L32.4727 25.6525C32.7212 25.8908 32.728 26.2857 32.4897 26.5342L20.4177 39.0352C20.1794 39.2837 19.7845 39.2905 19.5359 39.0488L7.03493 26.9768C6.78641 26.7385 6.7796 26.3436 7.01791 26.095L19.09 13.5974Z" fill="white"/>
      <path fill-rule="evenodd" clip-rule="evenodd" d="M19.3088 2.55767C21.1745 2.55767 22.6962 4.07603 22.6962 5.94506C22.6962 7.81408 21.1779 9.33245 19.3088 9.33245C17.4432 9.33245 15.9248 7.81408 15.9248 5.94506C15.9214 4.07944 17.4398 2.55767 19.3088 2.55767ZM19.3088 11.4057C22.3183 11.4057 24.7661 8.95456 24.7661 5.94506C24.7661 2.93215 22.3183 0.484375 19.3088 0.484375C16.2993 0.484375 13.8516 2.93556 13.8516 5.94506C13.8516 8.95796 16.2993 11.4057 19.3088 11.4057Z" fill="#1A59C2"/>
      <path fill-rule="evenodd" clip-rule="evenodd" d="M25.4743 26.5583C24.9738 26.5583 24.5653 26.1498 24.5653 25.6493C24.5653 25.1489 24.9738 24.7403 25.4743 24.7403C25.9747 24.7403 26.3833 25.1489 26.3833 25.6493C26.3833 26.1498 25.9747 26.5583 25.4743 26.5583ZM29.9341 28.3014L21.6886 36.5503C20.4936 37.7452 18.5531 37.7452 17.3582 36.5503L9.11268 28.3014C8.53393 27.7226 8.21391 26.9532 8.21391 26.1362C8.21391 25.3191 8.53393 24.5497 9.11268 23.9709L13.4908 19.5895C14.0525 22.0951 16.1224 24.0322 18.6927 24.3999C18.6927 25.3191 18.6893 27.1439 18.6518 27.8894C18.6144 28.7065 18.965 29.5508 19.5915 30.15C20.0953 30.63 20.9873 31.1645 22.4614 31.1645C22.6622 31.1645 22.8733 31.1543 23.0946 31.1338C24.8274 30.9704 25.8692 29.9423 26.0496 28.2775C27.2582 28.0154 28.1638 26.9396 28.1638 25.6527C28.1638 24.1718 26.9586 22.9666 25.4777 22.9666C23.9968 22.9666 22.7916 24.1718 22.7916 25.6527C22.7916 26.7047 23.401 27.6171 24.2827 28.0562C24.2078 28.8903 23.7959 29.2818 22.9244 29.3635C21.9814 29.4521 21.2528 29.2784 20.817 28.8631C20.5107 28.5703 20.4153 28.2128 20.4255 27.9745C20.463 27.1881 20.4664 25.3361 20.4664 24.4033C23.0061 24.039 25.0555 22.1462 25.6479 19.6848L29.9341 23.9709C30.5128 24.5497 30.8328 25.3191 30.8328 26.1362C30.8328 26.9532 30.5128 27.7226 29.9341 28.3014ZM17.3548 15.7186C17.9539 15.1229 18.737 14.8233 19.52 14.8233C20.303 14.8233 21.0894 15.1229 21.6852 15.7186L24.0615 18.0949C24.0546 18.1358 24.0478 18.1766 24.0478 18.2175C24.0478 20.6823 22.0426 22.6909 19.5778 22.6909C17.113 22.6909 15.1078 20.6857 15.1078 18.2175C15.1078 18.1392 15.0942 18.0677 15.0772 17.9962L17.3548 15.7186ZM31.398 22.5002L23.1525 14.2513C21.1507 12.2496 17.8927 12.2496 15.8909 14.2513L7.64538 22.5002C6.67512 23.4705 6.14062 24.7608 6.14062 26.1328C6.14062 27.5047 6.67512 28.795 7.64538 29.7653L15.8909 38.0142C16.8918 39.0151 18.2059 39.5155 19.5234 39.5155C20.8375 39.5155 22.155 39.0151 23.1559 38.0142L31.4014 29.7653C32.3716 28.795 32.9061 27.5047 32.9061 26.1328C32.9027 24.7642 32.3682 23.4739 31.398 22.5002Z" fill="#1A59C2"/>
      <path d="M49.2372 24.6035H43.9671L43.062 27.1777H40.9062L45.4172 14.5693H47.8066L52.3175 27.1777H50.1423L49.2372 24.6035ZM46.6095 17.0657L44.5462 22.9198H48.6581L46.6095 17.0657Z" fill="#1A59C2"/>
      <path d="M65.881 18.2087H63.3992C62.7276 16.9386 61.5306 16.306 60.0269 16.306C57.5257 16.306 55.7154 18.0822 55.7154 20.856C55.7154 23.6297 57.5257 25.4205 60.0269 25.4205C62.3092 25.4205 63.7398 24.0433 64.0513 21.9217H59.3213V20.272H66.2605V21.8827C65.881 24.7976 63.4138 27.2794 60.0269 27.2794C56.4746 27.2794 53.5938 24.6322 53.5938 20.8462C53.5938 17.0798 56.4746 14.4131 60.0269 14.4131C62.6547 14.4228 64.9174 15.7464 65.881 18.2087Z" fill="#1A59C2"/>
      <path d="M78.6376 14.5693V27.1777H76.5743L70.3602 17.7762V27.1777H68.2969V14.5693H70.3602L76.5743 23.9563V14.5693H78.6376Z" fill="#1A59C2"/>
      <path d="M87.1128 27.3057C83.5605 27.3057 80.6797 24.6439 80.6797 20.858C80.6797 17.0915 83.5605 14.4248 87.1128 14.4248C90.6992 14.4248 93.546 17.0866 93.546 20.858C93.5411 24.6439 90.6992 27.3057 87.1128 27.3057ZM87.1128 25.5149C89.6141 25.5149 91.4243 23.7047 91.4243 20.858C91.4243 18.0112 89.6141 16.235 87.1128 16.235C84.6116 16.235 82.8014 18.0112 82.8014 20.858C82.8014 23.6998 84.6116 25.5149 87.1128 25.5149Z" fill="#1A59C2"/>
      <path d="M103.165 12.6826C101.72 12.6826 100.547 13.8554 100.547 15.3006C100.547 16.7459 101.72 17.9187 103.165 17.9187C104.61 17.9187 105.783 16.7459 105.783 15.3006C105.783 13.8554 104.61 12.6826 103.165 12.6826ZM103.165 16.1863C102.683 16.1863 102.289 15.7921 102.289 15.3104C102.289 14.8286 102.683 14.4344 103.165 14.4344C103.647 14.4344 104.041 14.8286 104.041 15.3104C104.041 15.7921 103.647 16.1863 103.165 16.1863Z" fill="#1A59C2"/>
      <path d="M105.781 23.6334C105.781 25.6675 104.127 27.3171 102.097 27.3171H102.039L87.1094 27.3026V25.5118L102.039 25.5069H102.097C103.129 25.5069 103.966 24.6651 103.966 23.6334C103.966 22.6018 103.129 21.7648 102.097 21.7648L98.8078 21.7259C96.7834 21.7259 95.1386 20.0713 95.1386 18.0421C95.1386 16.0129 96.7883 14.3584 98.8224 14.3584L101.139 14.3681V16.1832L98.8224 16.1735C97.7907 16.1735 96.9489 17.0105 96.9489 18.0421C96.9489 19.0738 97.7907 19.9108 98.8224 19.9108L102.112 19.9497C104.136 19.9497 105.781 21.6042 105.781 23.6334Z" fill="#1A59C2"/>
    </svg>